<?xml version="1.0" encoding="UTF-8" standalone="no"?><svg xmlns="http://www.w3.org/2000/svg" xmlns:xlink="http://www.w3.org/1999/xlink" contentScriptType="application/ecmascript" contentStyleType="text/css" height="837px" preserveAspectRatio="none" style="width:855px;height:837px;" version="1.1" viewBox="0 0 855 837" width="855px" zoomAndPan="magnify"><defs><filter height="300%" id="f9ne9n03o1xy9" width="300%" x="-1" y="-1"><feGaussianBlur result="blurOut" stdDeviation="2.0"/><feColorMatrix in="blurOut" result="blurOut2" type="matrix" values="0 0 0 0 0 0 0 0 0 0 0 0 0 0 0 0 0 0 .4 0"/><feOffset dx="4.0" dy="4.0" in="blurOut2" result="blurOut3"/><feBlend in="SourceGraphic" in2="blurOut3" mode="normal"/></filter></defs><g><text fill="#000000" font-family="sans-serif" font-size="18" lengthAdjust="spacing" textLength="147" x="347.5" y="16.708">Kong Use Cases</text><!--MD5=[8699c0c8e953ee53654a072cc875bfb4]
cluster Browser--><rect fill="#FFFFFF" filter="url(#f9ne9n03o1xy9)" height="798" style="stroke:#000000;stroke-width:1.5;" width="836" x="7" y="27.9531"/><text fill="#000000" font-family="sans-serif" font-size="14" font-weight="bold" lengthAdjust="spacing" textLength="66" x="392" y="42.9482">Browser</text><!--MD5=[04563cfb8fc45cb1441f9001368ca62a]
cluster HTML--><rect fill="#FFFFFF" filter="url(#f9ne9n03o1xy9)" height="89" style="stroke:#000000;stroke-width:1.5;" width="358" x="365" y="196.9531"/><text fill="#000000" font-family="sans-serif" font-size="14" font-weight="bold" lengthAdjust="spacing" textLength="45" x="521.5" y="211.9482">HTML</text><!--MD5=[aed5e7c696f5628545a97d7e5ae05de4]
cluster WebSocket--><rect fill="#FFFFFF" filter="url(#f9ne9n03o1xy9)" height="99" style="stroke:#000000;stroke-width:1.5;" width="788" x="31" y="702.9531"/><text fill="#000000" font-family="sans-serif" font-size="14" font-weight="bold" lengthAdjust="spacing" textLength="89" x="380.5" y="717.9482">WebSocket</text><ellipse cx="487.9293" cy="365.739" fill="#FEFECE" filter="url(#f9ne9n03o1xy9)" rx="71.9293" ry="16.7859" style="stroke:#A80036;stroke-width:1.5;"/><text fill="#000000" font-family="sans-serif" font-size="14" lengthAdjust="spacing" textLength="98" x="435.9293" y="369.4866">Trigger Event</text><ellipse cx="479.9088" cy="483.932" fill="#FEFECE" filter="url(#f9ne9n03o1xy9)" rx="103.4088" ry="23.9788" style="stroke:#A80036;stroke-width:1.5;"/><text fill="#000000" font-family="sans-serif" font-size="14" font-style="italic" lengthAdjust="spacing" textLength="58" x="444.0851" y="477.1306">«Event»</text><text fill="#000000" font-family="sans-serif" font-size="14" lengthAdjust="spacing" textLength="144" x="401.0851" y="493.4275">Notifies Subscribers</text><ellipse cx="337.2487" cy="98.4768" fill="#FEFECE" filter="url(#f9ne9n03o1xy9)" rx="27.7487" ry="14.5236" style="stroke:#A80036;stroke-width:1.5;"/><text fill="#000000" font-family="sans-serif" font-size="14" lengthAdjust="spacing" textLength="23" x="325.7487" y="101.3234">IPC</text><!--MD5=[14533ecc255b3b24a7ab7af6dc19c04d]
entity Kong--><ellipse cx="375" cy="591.25" fill="#FEFECE" filter="url(#f9ne9n03o1xy9)" rx="4.5" ry="4.5" style="stroke:#A80036;stroke-width:1.5;"/><path d="M362.5,597.75 L362.5,602.75 L372,602.75 L372,605.0074 L362.5,614.5074 L366.7426,618.75 L375,610.4926 L383.2574,618.75 L387.5,614.5074 L378,605.0074 L378,602.75 L387.5,602.75 L387.5,597.75 L362.5,597.75 " fill="#FEFECE" filter="url(#f9ne9n03o1xy9)" style="stroke:#A80036;stroke-width:1.5;"/><text fill="#000000" font-family="sans-serif" font-size="14" lengthAdjust="spacing" textLength="37" x="356.5" y="636.2451">Kong</text><text fill="#000000" font-family="sans-serif" font-size="14" font-style="italic" lengthAdjust="spacing" textLength="63" x="343.5" y="581.9482">«WASM»</text><!--MD5=[b126432b5e00bc6f4a80945f06c7117d]
entity Mothra--><ellipse cx="488" cy="85.25" fill="#FEFECE" filter="url(#f9ne9n03o1xy9)" rx="4.5" ry="4.5" style="stroke:#A80036;stroke-width:1.5;"/><path d="M475.5,91.75 L475.5,96.75 L485,96.75 L485,99.0074 L475.5,108.5074 L479.7426,112.75 L488,104.4926 L496.2574,112.75 L500.5,108.5074 L491,99.0074 L491,96.75 L500.5,96.75 L500.5,91.75 L475.5,91.75 " fill="#FEFECE" filter="url(#f9ne9n03o1xy9)" style="stroke:#A80036;stroke-width:1.5;"/><text fill="#000000" font-family="sans-serif" font-size="14" lengthAdjust="spacing" textLength="51" x="462.5" y="130.2451">Mothra</text><text fill="#000000" font-family="sans-serif" font-size="14" font-style="italic" lengthAdjust="spacing" textLength="89" x="443.5" y="75.9482">«JavaScript»</text><ellipse cx="644.2349" cy="250.9001" fill="#FEFECE" filter="url(#f9ne9n03o1xy9)" rx="62.7349" ry="14.947" style="stroke:#A80036;stroke-width:1.5;"/><text fill="#000000" font-family="sans-serif" font-size="14" lengthAdjust="spacing" textLength="72" x="605.2349" y="254.6477">Load DOM</text><ellipse cx="463.788" cy="250.8107" fill="#FEFECE" filter="url(#f9ne9n03o1xy9)" rx="82.288" ry="18.8576" style="stroke:#A80036;stroke-width:1.5;"/><text fill="#000000" font-family="sans-serif" font-size="14" lengthAdjust="spacing" textLength="124" x="400.9505" y="253.9369">Manipulates DOM</text><ellipse cx="121.9948" cy="761.8521" fill="#FEFECE" filter="url(#f9ne9n03o1xy9)" rx="74.9948" ry="17.399" style="stroke:#A80036;stroke-width:1.5;"/><text fill="#000000" font-family="sans-serif" font-size="14" lengthAdjust="spacing" textLength="106" x="65.9948" y="765.5996">Read Resource</text><ellipse cx="306.2198" cy="762.1971" fill="#FEFECE" filter="url(#f9ne9n03o1xy9)" rx="74.2198" ry="17.244" style="stroke:#A80036;stroke-width:1.5;"/><text fill="#000000" font-family="sans-serif" font-size="14" lengthAdjust="spacing" textLength="104" x="251.2198" y="765.9446">Save Resource</text><ellipse cx="499.9263" cy="761.7384" fill="#FEFECE" filter="url(#f9ne9n03o1xy9)" rx="84.4263" ry="19.2853" style="stroke:#A80036;stroke-width:1.5;"/><text fill="#000000" font-family="sans-serif" font-size="14" lengthAdjust="spacing" textLength="129" x="435.305" y="764.627">Remove Resource</text><ellipse cx="711.1544" cy="762.0449" fill="#FEFECE" filter="url(#f9ne9n03o1xy9)" rx="91.6544" ry="24.0918" style="stroke:#A80036;stroke-width:1.5;"/><text fill="#000000" font-family="sans-serif" font-size="14" font-style="italic" lengthAdjust="spacing" textLength="58" x="675.7132" y="755.5087">«Event»</text><text fill="#000000" font-family="sans-serif" font-size="14" lengthAdjust="spacing" textLength="125" x="642.2132" y="771.8056">Send Notification</text><!--MD5=[b06d5c60cca5596a02023fcd25fc65bf]
reverse link TriggerEvent to Notify--><path d="M485.495,403.2811 C484.222,421.7331 482.714,443.6031 481.6,459.7571 " fill="none" id="TriggerEvent-backto-Notify" style="stroke:#A80036;stroke-width:1.0;stroke-dasharray:7.0,7.0;"/><polygon fill="none" points="478.528,402.5531,486.888,383.0821,492.495,403.5171,478.528,402.5531" style="stroke:#A80036;stroke-width:1.0;"/><text fill="#000000" font-family="sans-serif" font-size="13" lengthAdjust="spacing" textLength="40" x="485" y="426.02">Inherit</text><!--MD5=[c2bc5cc8916451ea42f21ee5c78bdb46]
reverse link ManipDom to TriggerEvent--><path d="M472.056,289.8841 C476.303,309.8811 481.292,333.3691 484.543,348.6761 " fill="none" id="ManipDom-backto-TriggerEvent" style="stroke:#A80036;stroke-width:1.0;stroke-dasharray:7.0,7.0;"/><polygon fill="none" points="465.164,291.1261,467.856,270.1081,478.858,288.2181,465.164,291.1261" style="stroke:#A80036;stroke-width:1.0;"/><text fill="#000000" font-family="sans-serif" font-size="13" lengthAdjust="spacing" textLength="40" x="479" y="315.02">Inherit</text><!--MD5=[e710920266c2bed90c6e50ddd9817ec3]
reverse link LoadDom to TriggerEvent--><path d="M609.184,277.1721 C578.54,299.3691 534.912,330.9721 509.22,349.5821 " fill="none" id="LoadDom-backto-TriggerEvent" style="stroke:#A80036;stroke-width:1.0;stroke-dasharray:7.0,7.0;"/><polygon fill="none" points="605.189,271.4231,625.492,265.3591,613.401,282.7611,605.189,271.4231" style="stroke:#A80036;stroke-width:1.0;"/><text fill="#000000" font-family="sans-serif" font-size="13" lengthAdjust="spacing" textLength="40" x="571" y="315.02">Inherit</text><!--MD5=[e782e3ef111437fd477728de8e747c22]
link Notify to Kong--><path d="M460.003,507.5211 C445.611,523.7631 425.847,546.0691 408.998,565.0841 " fill="none" id="Notify-to-Kong" style="stroke:#A80036;stroke-width:2.0;"/><polygon fill="#A80036" points="405.669,568.8411,414.631,564.7568,408.9845,565.0985,408.6428,559.452,405.669,568.8411" style="stroke:#A80036;stroke-width:2.0;"/><!--MD5=[ba795e4d4029b4086ac1f6c76d333600]
link Kong to ReadRes--><path d="M343.215,621.7351 C310.283,638.9231 257.626,667.3071 214,694.9531 C190.536,709.8221 164.944,728.3861 146.722,742.0354 " fill="none" id="Kong-to-ReadRes" style="stroke:#A80036;stroke-width:2.0;"/><polygon fill="#A80036" points="142.718,745.0442,152.3158,742.8347,146.715,742.0402,147.5094,736.4395,142.718,745.0442" style="stroke:#A80036;stroke-width:2.0;"/><text fill="#000000" font-family="sans-serif" font-size="13" lengthAdjust="spacing" textLength="42" x="254" y="683.02">Invoke</text><!--MD5=[81c84a45b4a990b80a2fa608686f42ef]
link Kong to SaveRes--><path d="M359.687,639.9631 C346.138,670.4971 326.801,714.0761 315.41,739.7471 " fill="none" id="Kong-to-SaveRes" style="stroke:#A80036;stroke-width:2.0;"/><polygon fill="#A80036" points="313.242,744.6332,320.5494,738.0301,315.2706,740.0632,313.2374,734.7844,313.242,744.6332" style="stroke:#A80036;stroke-width:2.0;"/><text fill="#000000" font-family="sans-serif" font-size="13" lengthAdjust="spacing" textLength="42" x="345" y="683.02">Invoke</text><!--MD5=[f61a8e11101a70dce43fbfcdbce8b024]
link Kong to RemoveRes--><path d="M402.742,639.9631 C426.91,670.0291 461.247,712.7441 481.995,738.5551 " fill="none" id="Kong-to-RemoveRes" style="stroke:#A80036;stroke-width:2.0;"/><polygon fill="#A80036" points="485.205,742.5478,482.6837,733.0272,482.0723,738.6509,476.4486,738.0395,485.205,742.5478" style="stroke:#A80036;stroke-width:2.0;"/><text fill="#000000" font-family="sans-serif" font-size="13" lengthAdjust="spacing" textLength="42" x="438" y="683.02">Invoke</text><!--MD5=[ea3fa6f0bf02731175c51c5e7f368c6f]
reverse link Kong to Notification--><path d="M411.398,617.6601 C456.923,633.4111 536.809,662.6541 602,694.9531 C628.562,708.1141 657.182,725.5801 678.427,739.2381 " fill="none" id="Kong-backto-Notification" style="stroke:#A80036;stroke-width:2.0;"/><polygon fill="#A80036" points="406.561,615.9931,413.7655,622.7085,411.2879,617.623,416.3733,615.1455,406.561,615.9931" style="stroke:#A80036;stroke-width:2.0;"/><!--MD5=[4d0174a09023d170815afd137c40ca71]
reverse link IPC to Kong--><path d="M337,118.4891 C337,147.0471 337,202.6771 337,249.9531 C337,249.9531 337,249.9531 337,484.9531 C337,514.2281 347.646,545.7111 357.668,568.8631 " fill="none" id="IPC-backto-Kong" style="stroke:#A80036;stroke-width:2.0;"/><polygon fill="#A80036" points="337,113.1491,333,122.1491,337,118.1491,341,122.1491,337,113.1491" style="stroke:#A80036;stroke-width:2.0;"/><text fill="#000000" font-family="sans-serif" font-size="13" lengthAdjust="spacing" textLength="42" x="338" y="370.52">Invoke</text><!--MD5=[17408d2c130d2b929d9aedd2ea878d6c]
link IPC to Mothra--><path d="M364.696,98.4531 C385.204,98.4531 413.705,98.4531 438.141,98.4531 " fill="none" id="IPC-to-Mothra" style="stroke:#A80036;stroke-width:2.0;"/><polygon fill="#A80036" points="443.289,98.4531,434.289,94.4531,438.289,98.4531,434.289,102.4531,443.289,98.4531" style="stroke:#A80036;stroke-width:2.0;"/><text fill="#000000" font-family="sans-serif" font-size="13" lengthAdjust="spacing" textLength="42" x="383" y="91.52">Invoke</text><!--MD5=[ce94d249eabf013bb05ab7f48be137d6]
link Mothra to ManipDom--><path d="M482.494,133.9811 C477.972,162.3381 471.689,201.7351 467.735,226.5311 " fill="none" id="Mothra-to-ManipDom" style="stroke:#A80036;stroke-width:2.0;"/><polygon fill="#A80036" points="466.928,231.5921,472.2971,223.3354,467.7164,226.6547,464.3971,222.074,466.928,231.5921" style="stroke:#A80036;stroke-width:2.0;"/><text fill="#000000" font-family="sans-serif" font-size="13" lengthAdjust="spacing" textLength="42" x="478" y="177.02">Invoke</text><!--MD5=[9a3db1217df5c3e2b09e64a1ddc843a4]
link Mothra to LoadDom--><path d="M523.79,133.9811 C555.724,164.7891 601.167,208.6301 626.032,232.6191 " fill="none" id="Mothra-to-LoadDom" style="stroke:#A80036;stroke-width:2.0;"/><polygon fill="#A80036" points="629.841,236.2931,626.1426,227.165,626.2432,232.821,620.5872,232.9215,629.841,236.2931" style="stroke:#A80036;stroke-width:2.0;"/><text fill="#000000" font-family="sans-serif" font-size="13" lengthAdjust="spacing" textLength="42" x="571" y="177.02">Invoke</text><!--MD5=[26d2050634a389f9ab4a8bbaa2e5dfb5]
@startuml
title Kong Use Cases
top to bottom direction
skinparam actorStyle hollow

rectangle Browser {
    rectangle HTML {
        usecase (Load DOM) as LoadDom
        usecase (Manipulates DOM) as ManipDom
    }

    rectangle WebSocket {
        usecase (Read Resource) as ReadRes
        usecase (Save Resource) as SaveRes
        usecase (Remove Resource) as RemoveRes
        usecase (Send Notification) << Event >> as Notification
    }

    usecase (Trigger Event) as TriggerEvent
    usecase (Notifies Subscribers) << Event >> as Notify
    usecase (IPC)

    TriggerEvent <|.d. Notify : Inherit
    TriggerEvent .u.|> ManipDom : Inherit
    TriggerEvent .u.|> LoadDom : Inherit

    actor Kong << WASM >> as Kong
    actor Mothra << JavaScript >> as Mothra

    Notify ==> Kong

    Kong =d=> ReadRes : Invoke
    Kong =d=> SaveRes : Invoke
    Kong =d=> RemoveRes : Invoke

    Kong <=d= Notification

    Kong =l=> IPC : Invoke
    IPC =r=> Mothra : Invoke

    Mothra =d=> ManipDom : Invoke
    Mothra =d=> LoadDom : Invoke
}
@enduml

PlantUML version 1.2021.4beta3(Unknown compile time)
(GPL source distribution)
Java Runtime: Java(TM) SE Runtime Environment
JVM: Java HotSpot(TM) 64-Bit Server VM
Default Encoding: UTF-8
Language: en
Country: US
--></g></svg>