<?xml version="1.0" encoding="UTF-8" standalone="no"?><svg xmlns="http://www.w3.org/2000/svg" xmlns:xlink="http://www.w3.org/1999/xlink" contentScriptType="application/ecmascript" contentStyleType="text/css" height="516px" preserveAspectRatio="none" style="width:460px;height:516px;" version="1.1" viewBox="0 0 460 516" width="460px" zoomAndPan="magnify"><defs><filter height="300%" id="fgig0xhlcbll1" width="300%" x="-1" y="-1"><feGaussianBlur result="blurOut" stdDeviation="2.0"/><feColorMatrix in="blurOut" result="blurOut2" type="matrix" values="0 0 0 0 0 0 0 0 0 0 0 0 0 0 0 0 0 0 .4 0"/><feOffset dx="4.0" dy="4.0" in="blurOut2" result="blurOut3"/><feBlend in="SourceGraphic" in2="blurOut3" mode="normal"/></filter></defs><g><text fill="#000000" font-family="sans-serif" font-size="18" lengthAdjust="spacing" textLength="192" x="127.5" y="16.708">Web User Use Cases</text><!--MD5=[8699c0c8e953ee53654a072cc875bfb4]
cluster Browser--><rect fill="#FFFFFF" filter="url(#fgig0xhlcbll1)" height="477" style="stroke:#000000;stroke-width:1.5;" width="245" x="203" y="27.9531"/><text fill="#000000" font-family="sans-serif" font-size="14" font-weight="bold" lengthAdjust="spacing" textLength="66" x="292.5" y="42.9482">Browser</text><!--MD5=[e6e61d846f7ebc290f4b7ed94825158d]
cluster HTTP--><rect fill="#FFFFFF" filter="url(#fgig0xhlcbll1)" height="297" style="stroke:#000000;stroke-width:1.5;" width="197" x="227" y="70.9531"/><text fill="#000000" font-family="sans-serif" font-size="14" font-weight="bold" lengthAdjust="spacing" textLength="43" x="304" y="85.9482">HTTP</text><!--MD5=[04563cfb8fc45cb1441f9001368ca62a]
cluster HTML--><rect fill="#FFFFFF" filter="url(#fgig0xhlcbll1)" height="89" style="stroke:#000000;stroke-width:1.5;" width="197" x="227" y="391.9531"/><text fill="#000000" font-family="sans-serif" font-size="14" font-weight="bold" lengthAdjust="spacing" textLength="45" x="303" y="406.9482">HTML</text><ellipse cx="325.3073" cy="122.8146" fill="#FEFECE" filter="url(#fgig0xhlcbll1)" rx="72.3073" ry="16.8615" style="stroke:#A80036;stroke-width:1.5;"/><text fill="#000000" font-family="sans-serif" font-size="14" lengthAdjust="spacing" textLength="99" x="272.8073" y="126.5621">GET Resource</text><ellipse cx="325.2754" cy="193.0082" fill="#FEFECE" filter="url(#fgig0xhlcbll1)" rx="75.7754" ry="17.5551" style="stroke:#A80036;stroke-width:1.5;"/><text fill="#000000" font-family="sans-serif" font-size="14" lengthAdjust="spacing" textLength="108" x="268.2754" y="196.7558">POST Resource</text><ellipse cx="325.5529" cy="262.1637" fill="#FEFECE" filter="url(#fgig0xhlcbll1)" rx="71.5529" ry="16.7106" style="stroke:#A80036;stroke-width:1.5;"/><text fill="#000000" font-family="sans-serif" font-size="14" lengthAdjust="spacing" textLength="97" x="274.0529" y="265.9113">PUT Resource</text><ellipse cx="325.712" cy="332.8955" fill="#FEFECE" filter="url(#fgig0xhlcbll1)" rx="82.712" ry="18.9424" style="stroke:#A80036;stroke-width:1.5;"/><text fill="#000000" font-family="sans-serif" font-size="14" lengthAdjust="spacing" textLength="125" x="262.5208" y="335.9746">DELETE Resource</text><ellipse cx="325.288" cy="445.8107" fill="#FEFECE" filter="url(#fgig0xhlcbll1)" rx="82.288" ry="18.8576" style="stroke:#A80036;stroke-width:1.5;"/><text fill="#000000" font-family="sans-serif" font-size="14" lengthAdjust="spacing" textLength="124" x="262.4505" y="448.9369">Manipulates DOM</text><!--MD5=[6f93f9dac877e5e25710406a9dbd8f32]
entity WebUser--><ellipse cx="59.5" cy="238.75" fill="#FEFECE" filter="url(#fgig0xhlcbll1)" rx="8" ry="8" style="stroke:#A80036;stroke-width:1.5;"/><path d="M59.5,246.75 L59.5,273.75 M46.5,254.75 L72.5,254.75 M59.5,273.75 L46.5,288.75 M59.5,273.75 L72.5,288.75 " fill="none" filter="url(#fgig0xhlcbll1)" style="stroke:#A80036;stroke-width:1.5;"/><text fill="#000000" font-family="sans-serif" font-size="14" lengthAdjust="spacing" textLength="68" x="25.5" y="307.2451">Web User</text><text fill="#000000" font-family="sans-serif" font-size="14" font-style="italic" lengthAdjust="spacing" textLength="107" x="6" y="225.9482">«Human / Bot»</text><!--MD5=[3c49d45cfee1ff6cb7123f04677f0741]
link WebUser to ManipDom--><path d="M113.004,305.8261 C137.397,325.5541 167.119,348.6821 195,367.9531 C225.615,389.1131 262.045,410.7631 288.456,425.8677 " fill="none" id="WebUser-to-ManipDom" style="stroke:#A80036;stroke-width:2.0;"/><polygon fill="#A80036" points="292.936,428.4221,287.0996,420.4889,288.5927,425.9451,283.1364,427.4382,292.936,428.4221" style="stroke:#A80036;stroke-width:2.0;"/><text fill="#000000" font-family="sans-serif" font-size="13" lengthAdjust="spacing" textLength="42" x="144" y="327.02">Invoke</text><!--MD5=[74a12d23c8efc21c50b9e57bac7d7976]
link WebUser to HttpGet--><path d="M113.148,213.4191 C136.737,193.8251 165.79,172.4651 195,157.9531 C216.039,147.5011 240.604,139.8521 262.65,134.4191 " fill="none" id="WebUser-to-HttpGet" style="stroke:#A80036;stroke-width:2.0;"/><polygon fill="#A80036" points="267.606,133.2241,257.9193,131.4444,262.7452,134.3957,259.7939,139.2217,267.606,133.2241" style="stroke:#A80036;stroke-width:2.0;"/><text fill="#000000" font-family="sans-serif" font-size="13" lengthAdjust="spacing" textLength="42" x="144" y="159.02">Invoke</text><!--MD5=[a5679c780a0c8cd813d38d631eb9b769]
link WebUser to HttpPost--><path d="M113.225,246.2741 C123.1,243.4341 133.35,240.5521 143,237.9531 C184.232,226.8491 231.008,215.2761 266.746,206.6471 " fill="none" id="WebUser-to-HttpPost" style="stroke:#A80036;stroke-width:2.0;"/><polygon fill="#A80036" points="271.936,205.3961,262.2493,203.6164,267.0752,206.5677,264.1239,211.3937,271.936,205.3961" style="stroke:#A80036;stroke-width:2.0;"/><text fill="#000000" font-family="sans-serif" font-size="13" lengthAdjust="spacing" textLength="42" x="144" y="223.02">Invoke</text><!--MD5=[4adf040b6235ddf70961b365c5d3360b]
link WebUser to HttpPut--><path d="M113.29,261.9531 C152.041,261.9531 205.246,261.9531 248.559,261.9531 " fill="none" id="WebUser-to-HttpPut" style="stroke:#A80036;stroke-width:2.0;"/><polygon fill="#A80036" points="253.791,261.9531,244.791,257.9531,248.791,261.9531,244.791,265.9531,253.791,261.9531" style="stroke:#A80036;stroke-width:2.0;"/><text fill="#000000" font-family="sans-serif" font-size="13" lengthAdjust="spacing" textLength="42" x="144" y="258.02">Invoke</text><!--MD5=[c8b2e3cd731a9cb30a698fba22ffb12a]
link WebUser to HttpDelete--><path d="M113.208,278.3191 C123.084,281.2741 133.339,284.2671 143,286.9531 C182.701,297.9931 227.588,309.3791 262.79,318.0611 " fill="none" id="WebUser-to-HttpDelete" style="stroke:#A80036;stroke-width:2.0;"/><polygon fill="#A80036" points="267.912,319.3221,260.1295,313.2862,263.057,318.1266,258.2166,321.0541,267.912,319.3221" style="stroke:#A80036;stroke-width:2.0;"/><text fill="#000000" font-family="sans-serif" font-size="13" lengthAdjust="spacing" textLength="42" x="144" y="283.02">Invoke</text><!--MD5=[ebe5bc59909e07341bcf46e237243d31]
@startuml
title Web User Use Cases
left to right direction
actor :Web User: << Human / Bot >> as WebUser

rectangle Browser{
    rectangle HTTP {
        usecase (GET Resource) as HttpGet
        usecase (POST Resource) as HttpPost
        usecase (PUT Resource) as HttpPut
        usecase (DELETE Resource) as HttpDelete
    }

    rectangle HTML {
        usecase (Manipulates DOM) as ManipDom
    }
}

WebUser =d=> ManipDom : Invoke

WebUser =r=> HttpGet : Invoke
WebUser =r=> HttpPost : Invoke
WebUser =r=> HttpPut : Invoke
WebUser =r=> HttpDelete : Invoke
@enduml

PlantUML version 1.2021.4beta3(Unknown compile time)
(GPL source distribution)
Java Runtime: Java(TM) SE Runtime Environment
JVM: Java HotSpot(TM) 64-Bit Server VM
Default Encoding: UTF-8
Language: en
Country: US
--></g></svg>